<?xml version="1.0" encoding="UTF-8" standalone="no"?>
<!DOCTYPE svg PUBLIC "-//W3C//DTD SVG 1.1//EN"
 "http://www.w3.org/Graphics/SVG/1.1/DTD/svg11.dtd">
<!-- Generated by graphviz version 2.43.0 (0)
 -->
<!-- Title: systemd Pages: 1 -->
<svg width="984pt" height="404pt"
 viewBox="0.00 0.00 983.78 404.00" xmlns="http://www.w3.org/2000/svg" xmlns:xlink="http://www.w3.org/1999/xlink">
<g id="graph0" class="graph" transform="scale(1 1) rotate(0) translate(4 400)">
<title>systemd</title>
<polygon fill="white" stroke="transparent" points="-4,4 -4,-400 979.78,-400 979.78,4 -4,4"/>
<!-- abfs&#45;datadisk.path -->
<g id="node1" class="node">
<title>abfs&#45;datadisk.path</title>
<ellipse fill="none" stroke="black" cx="817.09" cy="-90" rx="75.29" ry="18"/>
<text text-anchor="middle" x="817.09" y="-86.3" font-family="Times,serif" font-size="14.00">abfs&#45;datadisk.path</text>
</g>
<!-- &#45;.mount -->
<g id="node2" class="node">
<title>&#45;.mount</title>
<ellipse fill="none" stroke="black" cx="817.09" cy="-18" rx="38.99" ry="18"/>
<text text-anchor="middle" x="817.09" y="-14.3" font-family="Times,serif" font-size="14.00">&#45;.mount</text>
</g>
<!-- abfs&#45;datadisk.path&#45;&gt;&#45;.mount -->
<g id="edge1" class="edge">
<title>abfs&#45;datadisk.path&#45;&gt;&#45;.mount</title>
<path fill="none" stroke="green" d="M817.09,-71.7C817.09,-63.98 817.09,-54.71 817.09,-46.11"/>
<polygon fill="green" stroke="green" points="820.59,-46.1 817.09,-36.1 813.59,-46.1 820.59,-46.1"/>
</g>
<!-- abfs&#45;server.service -->
<g id="node3" class="node">
<title>abfs&#45;server.service</title>
<ellipse fill="none" stroke="black" cx="561.09" cy="-378" rx="76.89" ry="18"/>
<text text-anchor="middle" x="561.09" y="-374.3" font-family="Times,serif" font-size="14.00">abfs&#45;server.service</text>
</g>
<!-- abfs&#45;docker&#45;warmup.service -->
<g id="node4" class="node">
<title>abfs&#45;docker&#45;warmup.service</title>
<ellipse fill="none" stroke="black" cx="428.09" cy="-306" rx="111.58" ry="18"/>
<text text-anchor="middle" x="428.09" y="-302.3" font-family="Times,serif" font-size="14.00">abfs&#45;docker&#45;warmup.service</text>
</g>
<!-- abfs&#45;server.service&#45;&gt;abfs&#45;docker&#45;warmup.service -->
<g id="edge2" class="edge">
<title>abfs&#45;server.service&#45;&gt;abfs&#45;docker&#45;warmup.service</title>
<path fill="none" stroke="green" d="M526.55,-361.81C506.9,-352.09 482.46,-339.33 462.79,-328.57"/>
<polygon fill="green" stroke="green" points="464.29,-325.4 453.84,-323.63 460.9,-331.53 464.29,-325.4"/>
</g>
<!-- abfs&#45;server.service&#45;&gt;abfs&#45;docker&#45;warmup.service -->
<g id="edge4" class="edge">
<title>abfs&#45;server.service&#45;&gt;abfs&#45;docker&#45;warmup.service</title>
<path fill="none" stroke="#a8a8a8" d="M536.36,-360.94C518.77,-351.1 494.78,-338.39 473.81,-327.78"/>
<polygon fill="#a8a8a8" stroke="#a8a8a8" points="475.23,-324.58 464.72,-323.23 472.09,-330.84 475.23,-324.58"/>
</g>
<!-- abfs&#45;datadisk&#45;ready.target -->
<g id="node5" class="node">
<title>abfs&#45;datadisk&#45;ready.target</title>
<ellipse fill="none" stroke="black" cx="695.09" cy="-306" rx="102.08" ry="18"/>
<text text-anchor="middle" x="695.09" y="-302.3" font-family="Times,serif" font-size="14.00">abfs&#45;datadisk&#45;ready.target</text>
</g>
<!-- abfs&#45;server.service&#45;&gt;abfs&#45;datadisk&#45;ready.target -->
<g id="edge3" class="edge">
<title>abfs&#45;server.service&#45;&gt;abfs&#45;datadisk&#45;ready.target</title>
<path fill="none" stroke="green" d="M586.05,-360.94C603.91,-351.03 628.3,-338.21 649.53,-327.56"/>
<polygon fill="green" stroke="green" points="651.33,-330.57 658.72,-322.98 648.21,-324.31 651.33,-330.57"/>
</g>
<!-- abfs&#45;server.service&#45;&gt;abfs&#45;datadisk&#45;ready.target -->
<g id="edge5" class="edge">
<title>abfs&#45;server.service&#45;&gt;abfs&#45;datadisk&#45;ready.target</title>
<path fill="none" stroke="#a8a8a8" d="M595.85,-361.81C615.64,-352.09 640.26,-339.33 660.09,-328.57"/>
<polygon fill="#a8a8a8" stroke="#a8a8a8" points="662.02,-331.5 669.11,-323.63 658.65,-325.36 662.02,-331.5"/>
</g>
<!-- network&#45;online.target -->
<g id="node8" class="node">
<title>network&#45;online.target</title>
<ellipse fill="none" stroke="black" cx="87.09" cy="-234" rx="87.18" ry="18"/>
<text text-anchor="middle" x="87.09" y="-230.3" font-family="Times,serif" font-size="14.00">network&#45;online.target</text>
</g>
<!-- abfs&#45;docker&#45;warmup.service&#45;&gt;network&#45;online.target -->
<g id="edge12" class="edge">
<title>abfs&#45;docker&#45;warmup.service&#45;&gt;network&#45;online.target</title>
<path fill="none" stroke="green" d="M358.54,-291.83C298.66,-279.89 212.89,-262.3 153.84,-249.86"/>
<polygon fill="green" stroke="green" points="154.37,-246.39 143.87,-247.75 152.93,-253.24 154.37,-246.39"/>
</g>
<!-- abfs&#45;docker&#45;warmup.service&#45;&gt;network&#45;online.target -->
<g id="edge18" class="edge">
<title>abfs&#45;docker&#45;warmup.service&#45;&gt;network&#45;online.target</title>
<path fill="none" stroke="#a8a8a8" d="M365.43,-291C307.06,-278.68 220.18,-260.85 159.01,-248.64"/>
<polygon fill="#a8a8a8" stroke="#a8a8a8" points="159.53,-245.17 149.04,-246.65 158.16,-252.04 159.53,-245.17"/>
</g>
<!-- cloud&#45;config.target -->
<g id="node9" class="node">
<title>cloud&#45;config.target</title>
<ellipse fill="none" stroke="black" cx="270.09" cy="-234" rx="77.99" ry="18"/>
<text text-anchor="middle" x="270.09" y="-230.3" font-family="Times,serif" font-size="14.00">cloud&#45;config.target</text>
</g>
<!-- abfs&#45;docker&#45;warmup.service&#45;&gt;cloud&#45;config.target -->
<g id="edge13" class="edge">
<title>abfs&#45;docker&#45;warmup.service&#45;&gt;cloud&#45;config.target</title>
<path fill="none" stroke="green" d="M391.84,-288.94C368.68,-278.68 338.5,-265.31 313.98,-254.44"/>
<polygon fill="green" stroke="green" points="315.11,-251.12 304.55,-250.26 312.27,-257.52 315.11,-251.12"/>
</g>
<!-- docker.service -->
<g id="node10" class="node">
<title>docker.service</title>
<ellipse fill="none" stroke="black" cx="428.09" cy="-234" rx="61.99" ry="18"/>
<text text-anchor="middle" x="428.09" y="-230.3" font-family="Times,serif" font-size="14.00">docker.service</text>
</g>
<!-- abfs&#45;docker&#45;warmup.service&#45;&gt;docker.service -->
<g id="edge14" class="edge">
<title>abfs&#45;docker&#45;warmup.service&#45;&gt;docker.service</title>
<path fill="none" stroke="green" d="M422.18,-287.7C421.38,-279.98 421.15,-270.71 421.5,-262.11"/>
<polygon fill="green" stroke="green" points="424.99,-262.32 422.2,-252.1 418.01,-261.84 424.99,-262.32"/>
</g>
<!-- abfs&#45;docker&#45;warmup.service&#45;&gt;docker.service -->
<g id="edge16" class="edge">
<title>abfs&#45;docker&#45;warmup.service&#45;&gt;docker.service</title>
<path fill="none" stroke="#a8a8a8" d="M434.01,-287.7C434.8,-279.98 435.03,-270.71 434.69,-262.11"/>
<polygon fill="#a8a8a8" stroke="#a8a8a8" points="438.18,-261.84 433.99,-252.1 431.19,-262.32 438.18,-261.84"/>
</g>
<!-- containerd.service -->
<g id="node11" class="node">
<title>containerd.service</title>
<ellipse fill="none" stroke="black" cx="583.09" cy="-234" rx="75.29" ry="18"/>
<text text-anchor="middle" x="583.09" y="-230.3" font-family="Times,serif" font-size="14.00">containerd.service</text>
</g>
<!-- abfs&#45;docker&#45;warmup.service&#45;&gt;containerd.service -->
<g id="edge15" class="edge">
<title>abfs&#45;docker&#45;warmup.service&#45;&gt;containerd.service</title>
<path fill="none" stroke="green" d="M458.61,-288.59C480.62,-278.13 510.63,-264.54 535.71,-253.67"/>
<polygon fill="green" stroke="green" points="537.25,-256.81 545.06,-249.64 534.49,-250.38 537.25,-256.81"/>
</g>
<!-- abfs&#45;docker&#45;warmup.service&#45;&gt;containerd.service -->
<g id="edge17" class="edge">
<title>abfs&#45;docker&#45;warmup.service&#45;&gt;containerd.service</title>
<path fill="none" stroke="#a8a8a8" d="M469.02,-289.12C492.56,-279.01 521.86,-265.84 544.92,-255.02"/>
<polygon fill="#a8a8a8" stroke="#a8a8a8" points="546.52,-258.14 554.07,-250.7 543.53,-251.81 546.52,-258.14"/>
</g>
<!-- abfs&#45;datadisk&#45;ready.target&#45;&gt;abfs&#45;datadisk.path -->
<g id="edge8" class="edge">
<title>abfs&#45;datadisk&#45;ready.target&#45;&gt;abfs&#45;datadisk.path</title>
<path fill="none" stroke="green" d="M688.28,-287.69C682.63,-256.1 682.84,-188.27 714.09,-144 725.22,-128.25 742.59,-116.59 759.98,-108.29"/>
<polygon fill="green" stroke="green" points="761.88,-111.27 769.6,-104.01 759.04,-104.88 761.88,-111.27"/>
</g>
<!-- abfs&#45;datadisk&#45;ready.target&#45;&gt;abfs&#45;datadisk.path -->
<g id="edge11" class="edge">
<title>abfs&#45;datadisk&#45;ready.target&#45;&gt;abfs&#45;datadisk.path</title>
<path fill="none" stroke="#a8a8a8" d="M698.81,-287.69C700.63,-256.1 700.84,-188.27 732.09,-144 742.2,-129.68 757.48,-118.75 772.36,-110.64"/>
<polygon fill="#a8a8a8" stroke="#a8a8a8" points="774.22,-113.62 781.52,-105.95 771.03,-107.39 774.22,-113.62"/>
</g>
<!-- abfs&#45;datadisk.service -->
<g id="node6" class="node">
<title>abfs&#45;datadisk.service</title>
<ellipse fill="none" stroke="black" cx="817.09" cy="-162" rx="85.29" ry="18"/>
<text text-anchor="middle" x="817.09" y="-158.3" font-family="Times,serif" font-size="14.00">abfs&#45;datadisk.service</text>
</g>
<!-- abfs&#45;datadisk&#45;ready.target&#45;&gt;abfs&#45;datadisk.service -->
<g id="edge9" class="edge">
<title>abfs&#45;datadisk&#45;ready.target&#45;&gt;abfs&#45;datadisk.service</title>
<path fill="none" stroke="green" d="M706.43,-287.92C718.96,-269.49 740.16,-239.6 761.09,-216 770.13,-205.81 780.84,-195.34 790.45,-186.43"/>
<polygon fill="green" stroke="green" points="792.85,-188.98 797.88,-179.65 788.13,-183.81 792.85,-188.98"/>
</g>
<!-- abfs&#45;wait&#45;datadisk.service -->
<g id="node7" class="node">
<title>abfs&#45;wait&#45;datadisk.service</title>
<ellipse fill="none" stroke="black" cx="873.09" cy="-234" rx="102.88" ry="18"/>
<text text-anchor="middle" x="873.09" y="-230.3" font-family="Times,serif" font-size="14.00">abfs&#45;wait&#45;datadisk.service</text>
</g>
<!-- abfs&#45;datadisk&#45;ready.target&#45;&gt;abfs&#45;wait&#45;datadisk.service -->
<g id="edge7" class="edge">
<title>abfs&#45;datadisk&#45;ready.target&#45;&gt;abfs&#45;wait&#45;datadisk.service</title>
<path fill="none" stroke="green" d="M730.15,-288.94C755.52,-278.5 790.17,-264.83 819.04,-253.87"/>
<polygon fill="green" stroke="green" points="820.47,-257.07 828.59,-250.26 818,-250.52 820.47,-257.07"/>
</g>
<!-- abfs&#45;datadisk&#45;ready.target&#45;&gt;abfs&#45;wait&#45;datadisk.service -->
<g id="edge10" class="edge">
<title>abfs&#45;datadisk&#45;ready.target&#45;&gt;abfs&#45;wait&#45;datadisk.service</title>
<path fill="none" stroke="#a8a8a8" d="M739.85,-289.64C767.08,-279.41 801.64,-265.88 828.78,-254.85"/>
<polygon fill="#a8a8a8" stroke="#a8a8a8" points="830.12,-258.08 838.05,-251.06 827.47,-251.6 830.12,-258.08"/>
</g>
<!-- abfs&#45;datadisk.service&#45;&gt;abfs&#45;datadisk.path -->
<g id="edge6" class="edge">
<title>abfs&#45;datadisk.service&#45;&gt;abfs&#45;datadisk.path</title>
<path fill="none" stroke="green" d="M817.09,-143.7C817.09,-135.98 817.09,-126.71 817.09,-118.11"/>
<polygon fill="green" stroke="green" points="820.59,-118.1 817.09,-108.1 813.59,-118.1 820.59,-118.1"/>
</g>
<!-- abfs&#45;wait&#45;datadisk.service&#45;&gt;abfs&#45;datadisk.path -->
<g id="edge19" class="edge">
<title>abfs&#45;wait&#45;datadisk.service&#45;&gt;abfs&#45;datadisk.path</title>
<path fill="none" stroke="green" d="M883.04,-216C896.49,-197.63 915.99,-167.79 902.09,-144 893.48,-129.26 879.1,-118.3 864.55,-110.3"/>
<polygon fill="green" stroke="green" points="866.01,-107.12 855.51,-105.69 862.83,-113.35 866.01,-107.12"/>
</g>
<!-- abfs&#45;wait&#45;datadisk.service&#45;&gt;abfs&#45;datadisk.path -->
<g id="edge21" class="edge">
<title>abfs&#45;wait&#45;datadisk.service&#45;&gt;abfs&#45;datadisk.path</title>
<path fill="none" stroke="#a8a8a8" d="M895.97,-216.33C914.25,-197.99 934.08,-167.94 920.09,-144 910.52,-127.62 893.82,-115.91 876.57,-107.73"/>
<polygon fill="#a8a8a8" stroke="#a8a8a8" points="877.53,-104.33 866.96,-103.55 874.73,-110.75 877.53,-104.33"/>
</g>
<!-- abfs&#45;wait&#45;datadisk.service&#45;&gt;abfs&#45;datadisk.service -->
<g id="edge20" class="edge">
<title>abfs&#45;wait&#45;datadisk.service&#45;&gt;abfs&#45;datadisk.service</title>
<path fill="none" stroke="green" d="M859.54,-216.05C852.73,-207.54 844.35,-197.07 836.84,-187.68"/>
<polygon fill="green" stroke="green" points="839.5,-185.41 830.52,-179.79 834.04,-189.78 839.5,-185.41"/>
</g>
</g>
</svg>
